<svg width="18" height="20" viewBox="0 0 18 20" fill="none" xmlns="http://www.w3.org/2000/svg">
<path d="M8.99719 19.9967C7.9826 20.0388 6.99257 19.6777 6.2433 18.9922C5.49403 18.3068 5.0464 17.3527 4.99815 16.3383V15.9973H1.63596C1.31241
15.9974 0.996117 15.9015 0.727079 15.7218C0.458041 15.5421 0.248347 15.2866 0.124523 14.9876C0.000699539 14.6887 -0.0316915 14.3598
0.0314475 14.0424C0.0945864 13.7251 0.250419 13.4336 0.479233 13.2048L2.2788 11.4051V6.72487C2.27952 5.76644 2.48493 4.81921 2.88128
3.94659C3.27763 3.07397 3.85578 2.29607 4.57704 1.66497C5.2983 1.03387 6.14604 0.564109 7.0635 0.287138C7.98097 0.0101673 8.94701
-0.0676285 9.89698 0.0589569C11.5336 0.309407 13.0244 1.1437 14.0939 2.40773C15.1634 3.67177 15.7395 5.28016 15.7156 6.93583V11.3981L17.5152
13.1978C17.7459 13.4264 17.9034 13.7184 17.9677 14.0368C18.0319 14.3552 18 14.6855 17.876 14.9857C17.7519 15.2859 17.5414 15.5424 17.2712
15.7225C17.0009 15.9027 16.6832 15.9983 16.3584 15.9973H12.9962V16.3373C12.948 17.3518 12.5004 18.306 11.7511 18.9916C11.0019 19.6772
10.0119 20.0385 8.99719 19.9967ZM6.99767 15.9973V16.3373C7.05288 16.8183 7.29165 17.2594 7.66419 17.5687C8.03673 17.8779 8.51427 18.0314
8.99719 17.997C9.48006 18.0311 9.95746 17.8776 10.3299 17.5684C10.7024 17.2592 10.9413 16.8182 10.9967 16.3373V15.9973H6.99767ZM8.99019
1.99964C7.85058 1.99551 6.74951 2.41205 5.89793 3.16945C5.39034 3.61253 4.98325 4.15894 4.70393 4.77211C4.42461 5.38529 4.2795 6.05106
4.27832 6.72487V11.3981C4.28016 11.6609 4.22986 11.9214 4.13032 12.1646C4.03079 12.4078 3.884 12.6288 3.69846 12.8149L2.51474
13.9977H15.4816L14.3009 12.8149C14.1149 12.6298 13.9674 12.4096 13.867 12.1671C13.7666 11.9246 13.7153 11.6646 13.7161
11.4021V6.93483C13.742 5.76304 13.3431 4.62144 12.593 3.72091C11.8428 2.82038 10.7922 2.22176 9.63504 2.03563C9.4211 2.00966 9.20569
1.99764 8.99019 1.99964Z" fill="#7D8AA4"/>
</svg>