<svg width="17" height="16" viewBox="0 0 17 16" fill="none" xmlns="http://www.w3.org/2000/svg">
<path d="M13.5951 16C13.3349 16 13.0806 15.9218 12.8642 15.7753C12.6478 15.6288 12.4792 15.4205 12.3796 15.1769C12.28 14.9333 12.254 14.6652 12.3048 14.4065C12.3555 14.1479 12.4808 13.9103 12.6648 13.7239C12.8488 13.5374 13.0832 13.4104 13.3385 13.359C13.5937 13.3075 13.8582 13.3339 14.0986 13.4348C14.339 13.5357 14.5445 13.7066 14.6891 13.9259C14.8336 14.1452 14.9108 14.403 14.9108 14.6667C14.9108 15.0203 14.7722 15.3594 14.5254 15.6095C14.2787 15.8595 13.9441 16 13.5951 16V16ZM4.82408 16C4.56387 16 4.3095 15.9218 4.09314 15.7753C3.87678 15.6288 3.70815 15.4205 3.60857 15.1769C3.50899 14.9333 3.48294 14.6652 3.5337 14.4065C3.58447 14.1479 3.70977 13.9103 3.89377 13.7239C4.07777 13.5374 4.3122 13.4104 4.56741 13.359C4.82262 13.3075 5.08716 13.3339 5.32756 13.4348C5.56797 13.5357 5.77344 13.7066 5.91801 13.9259C6.06258 14.1452 6.13974 14.403 6.13974 14.6667C6.13974 15.0203 6.00112 15.3594 5.75439 15.6095C5.50766 15.8595 5.17301 16 4.82408 16ZM13.1566 11.5556H5.26263C5.07014 11.5558 4.88289 11.4919 4.72977 11.3737C4.57666 11.2555 4.46617 11.0895 4.41535 10.9013L1.96121 1.77778H0.877105C0.644483 1.77778 0.421387 1.68413 0.256898 1.51743C0.0924091 1.35073 0 1.12464 0 0.88889C0 0.653142 0.0924091 0.427049 0.256898 0.26035C0.421387 0.0936512 0.644483 6.44686e-07 0.877105 6.44686e-07H2.63132C2.82393 -0.000234369 3.01126 0.0637906 3.16439 0.182191C3.31753 0.300592 3.42794 0.466784 3.4786 0.655112L4.0189 2.66667H15.2458C15.5448 2.66668 15.8388 2.74413 16.1 2.89167C16.3611 3.0392 16.5807 3.25193 16.7379 3.50966C16.8951 3.76738 16.9847 4.06155 16.9982 4.36423C17.0117 4.66692 16.9486 4.96807 16.815 5.23911L13.9416 11.064C13.8687 11.2118 13.7567 11.336 13.618 11.4229C13.4794 11.5097 13.3196 11.5556 13.1566 11.5556ZM4.49692 4.44445L5.93274 9.77778H12.6145L15.2458 4.44445H4.49692Z" fill="#7D8AA4"/>
</svg>
