<svg width="48" height="32" viewBox="0 0 48 32" fill="none" xmlns="http://www.w3.org/2000/svg">
<path d="M17.5412 32C17.1313 32.0002 16.7257 31.9258 16.3494 31.7815C15.9731 31.6371 15.6341 31.4259 15.3533 31.1608L0.758635 17.3635C0.239102 16.845 -0.0319975 16.167 0.00301425 15.4738C0.038026 14.7805 0.376386 14.1267 0.946105 13.6516C1.51582 13.1764 2.27193 12.9173 3.05357 12.9294C3.8352 12.9415 4.58066 13.2239 5.13135 13.7164L17.5112 25.4144L42.7451 0.904867C43.0084 0.639029 43.3288 0.422444 43.6875 0.267768C44.0462 0.113092 44.436 0.0234265 44.8342 0.00401039C45.2324 -0.0154057 45.631 0.0358172 46.0066 0.154686C46.3822 0.273555 46.7274 0.457686 47.022 0.696321C47.3165 0.934955 47.5545 1.22331 47.7221 1.54453C47.8897 1.86575 47.9835 2.2134 47.998 2.56716C48.0125 2.92092 47.9475 3.2737 47.8066 3.60489C47.6658 3.93608 47.452 4.23903 47.1778 4.49605L19.7561 31.1368C19.4769 31.4069 19.138 31.623 18.7606 31.7715C18.3831 31.9201 17.9751 31.9978 17.5622 32H17.5412Z" fill="#11A1FD"/>
</svg>
