<svg width="16" height="16" viewBox="0 0 16 16" fill="none" xmlns="http://www.w3.org/2000/svg">
    <path
        d="M8.7544 16H7.2408C6.88519 15.9998 6.54419 15.8585 6.29266 15.6071C6.04113 15.3557 5.89962 15.0148 5.8992 14.6592V13.7864C5.89546 13.7338 5.87622 13.6834 5.8439 13.6417C5.81158 13.6 5.76763 13.5688 5.7176 13.552C5.66702 13.53 5.61273 13.5178 5.5576 13.516C5.52818 13.5151 5.49887 13.5201 5.4714 13.5307C5.44393 13.5413 5.41884 13.5572 5.3976 13.5776L4.7816 14.1936C4.5292 14.4453 4.18728 14.5867 3.8308 14.5867C3.47432 14.5867 3.1324 14.4453 2.88 14.1936L1.8056 13.12C1.6804 12.9951 1.58107 12.8467 1.51329 12.6833C1.44552 12.52 1.41063 12.3449 1.41063 12.168C1.41063 11.9911 1.44552 11.816 1.51329 11.6527C1.58107 11.4893 1.6804 11.3409 1.8056 11.216L2.42 10.604C2.45513 10.5641 2.47754 10.5146 2.48438 10.4619C2.49122 10.4091 2.48218 10.3556 2.4584 10.308C2.44326 10.252 2.41156 10.2019 2.36745 10.1642C2.32334 10.1265 2.26888 10.103 2.2112 10.0968H1.3464C0.990069 10.0966 0.648334 9.95522 0.395995 9.70363C0.143657 9.45204 0.00126953 9.11073 0 8.7544L0 7.2408C0.000635031 6.88525 0.142211 6.54446 0.393695 6.29313C0.64518 6.0418 0.986054 5.90042 1.3416 5.9H2.2136C2.2663 5.89609 2.31667 5.87669 2.35838 5.84424C2.40008 5.81179 2.43127 5.76773 2.448 5.7176C2.47673 5.66797 2.48967 5.61077 2.48509 5.55361C2.48052 5.49645 2.45865 5.44203 2.4224 5.3976L1.8064 4.7816C1.55486 4.5291 1.41363 4.18721 1.41363 3.8308C1.41363 3.47439 1.55486 3.1325 1.8064 2.88L2.88 1.8056C3.0049 1.68052 3.15324 1.58129 3.31652 1.51359C3.47981 1.44588 3.65484 1.41103 3.8316 1.41103C4.00836 1.41103 4.18339 1.44588 4.34668 1.51359C4.50996 1.58129 4.6583 1.68052 4.7832 1.8056L5.3952 2.4208C5.41699 2.44229 5.44288 2.45917 5.47133 2.47044C5.49978 2.48171 5.53021 2.48714 5.5608 2.4864C5.60563 2.48598 5.64994 2.47674 5.6912 2.4592C5.7469 2.44363 5.79668 2.41178 5.83417 2.36774C5.87165 2.3237 5.89513 2.26947 5.9016 2.212V1.3464C5.90202 0.989719 6.04379 0.647745 6.29585 0.395383C6.54791 0.143022 6.88972 0.000846471 7.2464 0L8.76 0C9.11547 0.000423434 9.45626 0.141822 9.70762 0.393179C9.95898 0.644536 10.1004 0.985328 10.1008 1.3408V2.2136C10.1045 2.26624 10.1238 2.31659 10.1561 2.3583C10.1884 2.40002 10.2324 2.43123 10.2824 2.448C10.3329 2.47042 10.3872 2.48291 10.4424 2.4848C10.472 2.48569 10.5014 2.48055 10.5289 2.46968C10.5564 2.45882 10.5814 2.44246 10.6024 2.4216L11.2184 1.8056C11.4708 1.55386 11.8127 1.4125 12.1692 1.4125C12.5257 1.4125 12.8676 1.55386 13.12 1.8056L14.196 2.88C14.4481 3.13219 14.5898 3.47419 14.5898 3.8308C14.5898 4.18741 14.4481 4.52941 14.196 4.7816L13.5808 5.3944C13.5456 5.4343 13.5232 5.48384 13.5165 5.53662C13.5098 5.5894 13.5191 5.64297 13.5432 5.6904C13.5581 5.7464 13.5896 5.79656 13.6336 5.83427C13.6776 5.87197 13.732 5.89545 13.7896 5.9016H14.6568C15.0129 5.90266 15.354 6.04462 15.6057 6.29646C15.8574 6.54831 15.9992 6.88955 16 7.2456V8.76C15.9996 9.11547 15.8582 9.45626 15.6068 9.70762C15.3555 9.95898 15.0147 10.1004 14.6592 10.1008H13.7872C13.7345 10.1047 13.6841 10.1241 13.6424 10.1566C13.6007 10.189 13.5695 10.2331 13.5528 10.2832L13.5456 10.3008V10.3096C13.522 10.3571 13.513 10.4105 13.5195 10.4631C13.526 10.5158 13.5479 10.5653 13.5824 10.6056L14.1992 11.2208C14.4504 11.4736 14.5914 11.8156 14.5914 12.172C14.5914 12.5284 14.4504 12.8704 14.1992 13.1232L13.12 14.1944C12.995 14.3195 12.8466 14.4188 12.6833 14.4865C12.5199 14.5542 12.3448 14.589 12.168 14.589C11.9912 14.589 11.8161 14.5542 11.6527 14.4865C11.4894 14.4188 11.341 14.3195 11.216 14.1944L10.604 13.5792C10.5822 13.5578 10.5563 13.5411 10.5278 13.5299C10.4993 13.5188 10.4689 13.5135 10.4384 13.5144C10.3933 13.5147 10.3487 13.5239 10.3072 13.5416C10.2515 13.5568 10.2016 13.5885 10.1641 13.6324C10.1265 13.6763 10.1031 13.7306 10.0968 13.788V14.6552C10.096 15.0112 9.95433 15.3524 9.70283 15.6043C9.45134 15.8563 9.11039 15.9985 8.7544 16ZM5.5616 11.9136C5.81825 11.9138 6.07228 11.9652 6.3088 12.0648C6.65585 12.2011 6.95447 12.4376 7.16661 12.7442C7.37876 13.0508 7.49482 13.4136 7.5 13.7864V14.4H8.5008V13.7864C8.50377 13.4169 8.61666 13.0566 8.82509 12.7514C9.03352 12.4462 9.32806 12.21 9.6712 12.0728C9.91562 11.9687 10.1783 11.9143 10.444 11.9128C10.6849 11.9112 10.9237 11.9575 11.1465 12.0491C11.3692 12.1407 11.5716 12.2758 11.7416 12.4464L12.1728 12.8792L12.8824 12.1696L12.4464 11.7336C12.186 11.4696 12.0105 11.1338 11.9424 10.7692C11.8744 10.4047 11.9171 10.0281 12.0648 9.688L12.0744 9.664C12.2115 9.3214 12.4476 9.02741 12.7525 8.81953C13.0575 8.61165 13.4174 8.49929 13.7864 8.4968H14.4V7.5H13.7872C13.4175 7.49718 13.0571 7.38426 12.7518 7.17565C12.4466 6.96705 12.2105 6.67221 12.0736 6.3288C11.9225 5.98557 11.8776 5.605 11.9446 5.23604C12.0116 4.86707 12.1875 4.5266 12.4496 4.2584L12.8824 3.828L12.1728 3.12L11.7368 3.556C11.5665 3.72619 11.3641 3.86092 11.1414 3.95237C10.9186 4.04383 10.68 4.0902 10.4392 4.0888C10.1826 4.08855 9.92855 4.03715 9.692 3.9376C9.34489 3.80119 9.04624 3.56455 8.8341 3.2578C8.62196 2.95106 8.50593 2.58812 8.5008 2.2152V1.6H7.5V2.2136C7.49718 2.58328 7.38426 2.94374 7.17565 3.24896C6.96705 3.55418 6.67221 3.7903 6.3288 3.9272C6.08472 4.0315 5.82223 4.0859 5.5568 4.0872C5.31598 4.08873 5.07728 4.04225 4.85462 3.9505C4.63197 3.85875 4.42982 3.72355 4.26 3.5528L3.828 3.12L3.12 3.828L3.556 4.2632C3.81588 4.52753 3.991 4.86337 4.05898 5.22776C4.12696 5.59216 4.08469 5.96855 3.9376 6.3088C3.80127 6.65628 3.56442 6.95522 3.25733 7.16741C2.95023 7.3796 2.58684 7.4954 2.2136 7.5H1.6V8.5H2.2136C2.58327 8.50243 2.9438 8.61511 3.24907 8.82361C3.55434 9.03211 3.79045 9.32695 3.9272 9.6704C4.07826 10.0136 4.12317 10.3942 4.05616 10.7632C3.98916 11.1321 3.8133 11.4726 3.5512 11.7408L3.1184 12.172L3.828 12.8816L4.2632 12.4456C4.43368 12.2755 4.63622 12.1408 4.8591 12.0495C5.08197 11.9582 5.32075 11.912 5.5616 11.9136ZM8 10.8C7.44621 10.8 6.90486 10.6358 6.4444 10.3281C5.98395 10.0204 5.62506 9.58315 5.41314 9.07151C5.20121 8.55988 5.14576 7.99689 5.2538 7.45375C5.36184 6.9106 5.62851 6.41169 6.0201 6.0201C6.41169 5.62851 6.9106 5.36184 7.45375 5.2538C7.99689 5.14576 8.55988 5.20121 9.07151 5.41314C9.58315 5.62506 10.0204 5.98395 10.3281 6.4444C10.6358 6.90486 10.8 7.44621 10.8 8C10.8 8.74261 10.505 9.4548 9.9799 9.9799C9.4548 10.505 8.74261 10.8 8 10.8ZM8 6.8C7.76266 6.8 7.53065 6.87038 7.33332 7.00224C7.13598 7.13409 6.98217 7.32151 6.89134 7.54078C6.80052 7.76005 6.77676 8.00133 6.82306 8.23411C6.86936 8.46689 6.98365 8.68071 7.15147 8.84853C7.31929 9.01635 7.53311 9.13064 7.76589 9.17694C7.99867 9.22324 8.23995 9.19948 8.45922 9.10866C8.67849 9.01783 8.86591 8.86402 8.99776 8.66668C9.12962 8.46935 9.2 8.23734 9.2 8C9.2 7.68174 9.07357 7.37652 8.84853 7.15147C8.62348 6.92643 8.31826 6.8 8 6.8Z"
        fill="#7D8AA4" />
</svg>