<svg width="14" height="16" viewBox="0 0 14 16" fill="none" xmlns="http://www.w3.org/2000/svg">
<path d="M12.5304 16H1.46887C1.06818 15.9872 0.688726 15.8116 0.413542 15.5116C0.138358 15.2115 -0.010143 14.8115 0.000538835 14.399V7.69417C-0.000395188 7.26544 0.159851 6.85295 0.447727 6.54308L6.44393 0.231257C6.59301 0.0829191 6.79226 0 6.99961 0C7.20697 0 7.40621 0.0829191 7.55529 0.231257L13.5507 6.54228C13.8392 6.85219 14 7.26497 13.9995 7.69417V14.3982C14.0101 14.8109 13.8616 15.2111 13.5862 15.5113C13.3109 15.8115 12.9312 15.9872 12.5304 16ZM4.66685 7.99436H9.33315C9.53942 7.99436 9.73723 8.07869 9.88308 8.22881C10.0289 8.37893 10.1109 8.58254 10.1109 8.79484V14.3982H12.4362L12.444 7.69417L7 1.93709L1.56064 7.66135L1.55597 14.3982H3.88913V8.79484C3.88913 8.58254 3.97107 8.37893 4.11692 8.22881C4.26277 8.07869 4.46058 7.99436 4.66685 7.99436ZM5.44456 9.59532V14.3982H8.55544V9.59532H5.44456Z" fill="#7D8AA4"/>
</svg>
