<svg width="17" height="16" viewBox="0 0 17 16" fill="none" xmlns="http://www.w3.org/2000/svg">
<path d="M8.01598 15.9998H7.98319C5.86157 15.9955 3.82857 15.1485 2.33144 13.6452C0.834305 12.1419 -0.00433248 10.1055 1.68331e-05 7.98383C0.00436615 5.86222 0.851346 3.82922 2.35463 2.33209C3.85792 0.834955 5.89437 -0.0036827 8.01598 0.000666583H8.03918C9.16655 -0.0134748 10.2854 0.197518 11.3302 0.621283C12.375 1.04505 13.3247 1.67306 14.1237 2.46853C14.7746 3.12287 15.2846 3.90367 15.6221 4.76276C15.9596 5.62185 16.1175 6.541 16.0859 7.46346C15.9896 8.69503 15.4334 9.84528 14.5281 10.6857C13.6227 11.5262 12.4343 11.9953 11.199 12H9.87828C9.7722 12 9.67047 12.0422 9.59546 12.1172C9.52044 12.1922 9.4783 12.2939 9.4783 12.4C9.47956 12.4963 9.51598 12.5887 9.5807 12.66C9.7999 12.9051 9.95583 13.2 10.0349 13.5192C10.1139 13.8384 10.1137 14.172 10.0343 14.4911C9.91134 14.9299 9.64676 15.3158 9.28173 15.5887C8.91669 15.8616 8.47169 16.0061 8.01598 15.9998ZM8.03278 1.60058C6.50388 1.63211 5.0353 2.20291 3.8864 3.21216C2.73751 4.22141 1.98222 5.60419 1.75392 7.11628C1.62845 8.01535 1.69569 8.93083 1.95117 9.80192C2.20665 10.673 2.64453 11.4798 3.23573 12.1687C3.82693 12.8575 4.55793 13.4128 5.38017 13.7974C6.20241 14.1821 7.09709 14.3875 8.00478 14.3999C8.25997 14.3839 8.44236 14.2735 8.47996 14.1135C8.49822 14.0456 8.49892 13.9741 8.48199 13.9058C8.46506 13.8375 8.43105 13.7747 8.38316 13.7231C8.12663 13.4355 7.9589 13.0797 7.90025 12.6988C7.84161 12.3178 7.89456 11.9281 8.0527 11.5766C8.21084 11.2251 8.4674 10.9269 8.79138 10.7182C9.11535 10.5094 9.49286 10.3989 9.87828 10.4001H11.199C12.0212 10.3947 12.8122 10.0852 13.4198 9.53135C14.0275 8.97749 14.4087 8.2184 14.49 7.40027C14.5118 6.69427 14.3887 5.9913 14.1282 5.33474C13.8678 4.67817 13.4755 4.08195 12.9757 3.58287C12.335 2.94454 11.5735 2.44044 10.7356 2.10006C9.89768 1.75968 9.00031 1.58988 8.09598 1.60058H8.03278ZM4.0962 9.60015C3.80865 9.60017 3.53066 9.49694 3.31283 9.30925C3.095 9.12156 2.95181 8.86188 2.90932 8.57749C2.86684 8.29311 2.92789 8.00292 3.08136 7.75976C3.23484 7.5166 3.47052 7.33664 3.74552 7.25263C4.02051 7.16862 4.31653 7.18616 4.57969 7.30204C4.84284 7.41793 5.05564 7.62446 5.17933 7.88403C5.30302 8.14361 5.32939 8.43897 5.25363 8.71636C5.17787 8.99374 5.00503 9.23469 4.76656 9.39536C4.56847 9.52882 4.33505 9.60013 4.0962 9.60015ZM11.2958 6.40032C11.0047 6.4 10.7236 6.29385 10.5049 6.10165C10.2863 5.90945 10.145 5.64431 10.1073 5.35564C10.0696 5.06696 10.1382 4.77444 10.3002 4.53257C10.4622 4.2907 10.7067 4.11598 10.988 4.04097C11.2693 3.96596 11.5682 3.99577 11.8292 4.12485C12.0901 4.25392 12.2952 4.47347 12.4063 4.74257C12.5174 5.01167 12.5268 5.31197 12.4329 5.58753C12.339 5.86308 12.1481 6.09509 11.8958 6.24033C11.7133 6.34538 11.5064 6.40055 11.2958 6.40032ZM4.89615 6.40032C4.63204 6.40015 4.37536 6.31285 4.16591 6.15195C3.95647 5.99105 3.80596 5.76554 3.73772 5.51039C3.66949 5.25525 3.68734 4.98471 3.78851 4.74075C3.88968 4.49678 4.06852 4.293 4.29729 4.16102C4.52606 4.02904 4.79198 3.97622 5.05383 4.01075C5.31568 4.04529 5.55881 4.16525 5.74554 4.35204C5.93227 4.53883 6.05215 4.782 6.0866 5.04386C6.12106 5.30572 6.06815 5.57162 5.9361 5.80035C5.83071 5.98288 5.67912 6.13443 5.49656 6.23975C5.314 6.34508 5.10692 6.40046 4.89615 6.40032ZM8.09598 4.80041C7.85865 4.80041 7.62666 4.73003 7.42933 4.59818C7.232 4.46633 7.0782 4.27893 6.98738 4.05967C6.89656 3.84041 6.8728 3.59914 6.9191 3.36638C6.9654 3.13361 7.07968 2.9198 7.2475 2.75199C7.41531 2.58418 7.62912 2.46989 7.86188 2.42359C8.09465 2.37729 8.33592 2.40106 8.55517 2.49188C8.77443 2.5827 8.96184 2.7365 9.09369 2.93382C9.22554 3.13115 9.29591 3.36315 9.29591 3.60047C9.29591 3.91871 9.16949 4.22392 8.94446 4.44895C8.71943 4.67399 8.41422 4.80041 8.09598 4.80041Z" fill="#7D8AA4"/>
</svg>
