<svg width="17" height="16" viewBox="0 0 17 16" fill="none" xmlns="http://www.w3.org/2000/svg">
<path d="M8.002 16.0004C6.11445 16.0008 4.28754 15.3338 2.84427 14.1173C1.401 12.9008 0.434341 11.2132 0.115198 9.35285C-0.203946 7.49247 0.144984 5.57917 1.10029 3.95121C2.05561 2.32326 3.55576 1.08551 5.33554 0.456811C5.43565 0.416638 5.54286 0.397126 5.65071 0.399451C5.75856 0.401775 5.86483 0.425888 5.96312 0.470337C6.06141 0.514787 6.1497 0.578656 6.22267 0.658104C6.29564 0.737552 6.3518 0.830938 6.38775 0.932645C6.4237 1.03435 6.43872 1.14228 6.43189 1.24994C6.42506 1.3576 6.39652 1.46276 6.348 1.55911C6.29948 1.65546 6.23198 1.741 6.14955 1.81059C6.06712 1.88018 5.97147 1.93238 5.86835 1.96405C4.84955 2.32492 3.93873 2.93793 3.22084 3.7459C2.50295 4.55388 2.00137 5.5305 1.76288 6.58468C1.52439 7.63887 1.55675 8.73629 1.85696 9.77459C2.15716 10.8129 2.71543 11.7583 3.47969 12.5225C4.24395 13.2868 5.18931 13.845 6.22761 14.1452C7.26591 14.4454 8.36333 14.4778 9.41751 14.2393C10.4717 14.0008 11.4483 13.4992 12.2563 12.7814C13.0643 12.0635 13.6773 11.1526 14.0381 10.1338C14.1131 9.93954 14.2608 9.7821 14.4499 9.69499C14.6391 9.60788 14.8548 9.59795 15.0511 9.66733C15.2475 9.7367 15.409 9.87991 15.5015 10.0665C15.5939 10.2531 15.61 10.4684 15.5462 10.6667C14.9929 12.2256 13.9707 13.5751 12.62 14.53C11.2693 15.485 9.6562 15.9986 8.002 16.0004ZM15.2022 8.00019H8.80202C8.58984 8.00019 8.38636 7.91591 8.23632 7.76587C8.08629 7.61584 8.002 7.41235 8.002 7.20017V0.800019C8.002 0.587841 8.08629 0.384353 8.23632 0.23432C8.38636 0.0842875 8.58984 0 8.80202 0C10.711 0.00211753 12.5411 0.761385 13.891 2.11122C15.2408 3.46106 16.0001 5.29122 16.0022 7.20017C16.0022 7.41235 15.9179 7.61584 15.7679 7.76587C15.6178 7.91591 15.4144 8.00019 15.2022 8.00019ZM9.60204 1.65684V6.40016H14.3454C14.1686 5.20512 13.6119 4.09869 12.7577 3.24448C11.9035 2.39026 10.7971 1.83361 9.60204 1.65684Z" fill="#7D8AA4"/>
</svg>
