<svg width="16" height="16" viewBox="0 0 16 16" fill="none" xmlns="http://www.w3.org/2000/svg">
<path d="M7.88477 16.0003C7.67301 16.0007 7.46325 15.9594 7.26753 15.8785C7.07181 15.7977 6.894 15.6789 6.74432 15.5291L1.04027 9.82331C0.893261 9.67715 0.802328 9.48396 0.783374 9.27753L0.00381105 0.971673C-0.00827752 0.841545 0.00847609 0.710352 0.0528787 0.587439C0.0972813 0.464525 0.16824 0.352914 0.260702 0.260555C0.352474 0.167323 0.464029 0.0959112 0.587117 0.0515993C0.710206 0.00728744 0.84168 -0.008791 0.97182 0.00455279L9.27767 0.778782C9.48387 0.797937 9.6769 0.888482 9.82346 1.03478L15.5275 6.73884C15.8301 7.04198 16 7.45277 16 7.88107C16 8.30937 15.8301 8.72016 15.5275 9.0233L9.02345 15.5265C8.87429 15.6767 8.69688 15.7958 8.50145 15.8771C8.30603 15.9585 8.09644 16.0003 7.88477 16.0003ZM1.87672 1.8739L2.52295 8.79308L7.88477 14.1558L14.1595 7.88196L8.79678 2.51924L1.87672 1.8739ZM5.78164 7.11128C5.47317 7.11115 5.17429 7.00406 4.93593 6.80826C4.69757 6.61247 4.53446 6.34008 4.47441 6.03751C4.41436 5.73495 4.46107 5.42092 4.60659 5.14893C4.75211 4.87694 4.98744 4.66383 5.27247 4.54589C5.55751 4.42796 5.87461 4.4125 6.16977 4.50215C6.46492 4.5918 6.71986 4.78102 6.89114 5.03756C7.06243 5.29411 7.13947 5.6021 7.10913 5.90908C7.07879 6.21605 6.94295 6.50301 6.72476 6.72106C6.60118 6.84525 6.45419 6.94369 6.2923 7.01067C6.13041 7.07765 5.95684 7.11185 5.78164 7.11128Z" fill="#7D8AA4"/>
</svg>
