<svg width="18" height="17" viewBox="0 0 18 17" fill="none" xmlns="http://www.w3.org/2000/svg">
    <path
        d="M11.7 16.2C11.4613 16.2 11.2324 16.1052 11.0636 15.9364C10.8948 15.7676 10.8 15.5387 10.8 15.3C10.8 14.1065 10.3259 12.9619 9.48198 12.118C8.63807 11.2741 7.49347 10.8 6.3 10.8C5.10653 10.8 3.96193 11.2741 3.11802 12.118C2.27411 12.9619 1.8 14.1065 1.8 15.3C1.8 15.5387 1.70518 15.7676 1.5364 15.9364C1.36761 16.1052 1.13869 16.2 0.9 16.2C0.661305 16.2 0.432387 16.1052 0.263604 15.9364C0.0948212 15.7676 0 15.5387 0 15.3C0.000973173 14.0555 0.37054 12.8391 1.06207 11.8043C1.7536 10.7696 2.73611 9.96286 3.88564 9.48592C5.03517 9.00897 6.30022 8.88318 7.52116 9.12441C8.7421 9.36565 9.86424 9.96311 10.746 10.8414C11.4115 10.3264 12.208 10.0084 13.0451 9.92331C13.8823 9.83825 14.7265 9.98962 15.4819 10.3602C16.2374 10.7308 16.8738 11.3058 17.3189 12.0199C17.764 12.734 18 13.5586 18 14.4C18 14.6387 17.9052 14.8676 17.7364 15.0364C17.5676 15.2052 17.3387 15.3 17.1 15.3C16.8613 15.3 16.6324 15.2052 16.4636 15.0364C16.2948 14.8676 16.2 14.6387 16.2 14.4C16.2011 13.8928 16.059 13.3955 15.79 12.9654C15.5211 12.5354 15.1362 12.1899 14.6796 11.9689C14.223 11.7479 13.7134 11.6602 13.2092 11.7159C12.705 11.7717 12.2268 11.9686 11.8296 12.2841C12.3346 13.2091 12.5995 14.2461 12.6 15.3C12.6 15.5387 12.5052 15.7676 12.3364 15.9364C12.1676 16.1052 11.9387 16.2 11.7 16.2ZM13.5 9C12.966 9 12.444 8.84165 12 8.54497C11.5559 8.24829 11.2099 7.82661 11.0055 7.33325C10.8012 6.83989 10.7477 6.29701 10.8519 5.77326C10.9561 5.24951 11.2132 4.76841 11.5908 4.39081C11.9684 4.01321 12.4495 3.75606 12.9733 3.65188C13.497 3.5477 14.0399 3.60117 14.5332 3.80553C15.0266 4.00988 15.4483 4.35595 15.745 4.79996C16.0416 5.24397 16.2 5.76599 16.2 6.3C16.2 7.01609 15.9155 7.70284 15.4092 8.20919C14.9028 8.71554 14.2161 9 13.5 9ZM13.5 5.4C13.322 5.4 13.148 5.45279 13 5.55168C12.852 5.65057 12.7366 5.79113 12.6685 5.95559C12.6004 6.12004 12.5826 6.301 12.6173 6.47558C12.652 6.65017 12.7377 6.81053 12.8636 6.9364C12.9895 7.06226 13.1498 7.14798 13.3244 7.18271C13.499 7.21743 13.68 7.19961 13.8444 7.13149C14.0089 7.06337 14.1494 6.94802 14.2483 6.80001C14.3472 6.65201 14.4 6.478 14.4 6.3C14.4 6.06131 14.3052 5.83239 14.1364 5.66361C13.9676 5.49482 13.7387 5.4 13.5 5.4ZM6.3 7.2C5.58799 7.2 4.89196 6.98887 4.29995 6.59329C3.70793 6.19772 3.24651 5.63548 2.97403 4.97766C2.70156 4.31985 2.63027 3.59601 2.76917 2.89768C2.90808 2.19934 3.25095 1.55789 3.75442 1.05442C4.25788 0.550948 4.89934 0.208081 5.59767 0.0691746C6.29601 -0.0697322 7.01985 0.00155981 7.67766 0.274035C8.33547 0.546511 8.89772 1.00793 9.29329 1.59995C9.68886 2.19197 9.9 2.88799 9.9 3.6C9.89881 4.55442 9.51914 5.4694 8.84427 6.14427C8.1694 6.81914 7.25441 7.19881 6.3 7.2ZM6.3 1.8C5.94399 1.8 5.59598 1.90557 5.29997 2.10336C5.00397 2.30114 4.77325 2.58226 4.63702 2.91117C4.50078 3.24008 4.46513 3.602 4.53459 3.95116C4.60404 4.30033 4.77547 4.62106 5.02721 4.87279C5.27894 5.12453 5.59967 5.29596 5.94884 5.36542C6.298 5.43487 6.65992 5.39922 6.98883 5.26298C7.31774 5.12675 7.59886 4.89604 7.79665 4.60003C7.99443 4.30402 8.1 3.95601 8.1 3.6C8.1 3.12261 7.91036 2.66477 7.57279 2.32721C7.23523 1.98964 6.77739 1.8 6.3 1.8Z"
        fill="#7D8AA4" />
</svg>